<svg width="32" height="32" viewBox="0 0 32 32" fill="none" xmlns="http://www.w3.org/2000/svg">
<path d="M17.8799 15.9998L23.6132 10.2798C23.8643 10.0288 24.0054 9.68824 24.0054 9.33317C24.0054 8.97811 23.8643 8.63758 23.6132 8.38651C23.3622 8.13544 23.0217 7.99438 22.6666 7.99438C22.3115 7.99438 21.971 8.13544 21.7199 8.38651L15.9999 14.1198L10.2799 8.38651C10.0288 8.13544 9.68832 7.99438 9.33325 7.99438C8.97818 7.99438 8.63766 8.13544 8.38659 8.38651C8.13551 8.63758 7.99446 8.97811 7.99446 9.33317C7.99446 9.68824 8.13551 10.0288 8.38659 10.2798L14.1199 15.9998L8.38659 21.7198C8.26161 21.8438 8.16242 21.9913 8.09473 22.1537C8.02704 22.3162 7.99219 22.4905 7.99219 22.6665C7.99219 22.8425 8.02704 23.0168 8.09473 23.1793C8.16242 23.3418 8.26161 23.4892 8.38659 23.6132C8.51054 23.7381 8.658 23.8373 8.82048 23.905C8.98296 23.9727 9.15724 24.0076 9.33325 24.0076C9.50927 24.0076 9.68354 23.9727 9.84602 23.905C10.0085 23.8373 10.156 23.7381 10.2799 23.6132L15.9999 17.8798L21.7199 23.6132C21.8439 23.7381 21.9913 23.8373 22.1538 23.905C22.3163 23.9727 22.4906 24.0076 22.6666 24.0076C22.8426 24.0076 23.0169 23.9727 23.1794 23.905C23.3418 23.8373 23.4893 23.7381 23.6132 23.6132C23.7382 23.4892 23.8374 23.3418 23.9051 23.1793C23.9728 23.0168 24.0076 22.8425 24.0076 22.6665C24.0076 22.4905 23.9728 22.3162 23.9051 22.1537C23.8374 21.9913 23.7382 21.8438 23.6132 21.7198L17.8799 15.9998Z" fill="#808080"/>
</svg>
