<svg width="40" height="40" viewBox="0 0 40 40" fill="none" xmlns="http://www.w3.org/2000/svg">
<path d="M20.0001 25.8336C19.7807 25.8349 19.5633 25.7928 19.3602 25.7099C19.1572 25.6269 18.9725 25.5047 18.8167 25.3503L12.1501 18.6836C11.9947 18.5282 11.8714 18.3437 11.7873 18.1407C11.7032 17.9376 11.6599 17.72 11.6599 17.5003C11.6599 17.2805 11.7032 17.0629 11.7873 16.8599C11.8714 16.6568 11.9947 16.4723 12.1501 16.3169C12.3055 16.1615 12.4899 16.0383 12.693 15.9542C12.896 15.8701 13.1136 15.8268 13.3334 15.8268C13.5532 15.8268 13.7708 15.8701 13.9738 15.9542C14.1769 16.0383 14.3613 16.1615 14.5167 16.3169L20.0001 21.8336L25.5001 16.5336C25.6534 16.3631 25.8402 16.2261 26.0489 16.1311C26.2576 16.0361 26.4836 15.9853 26.7129 15.9816C26.9422 15.978 27.1697 16.0217 27.3813 16.11C27.5929 16.1983 27.784 16.3294 27.9426 16.4949C28.1013 16.6604 28.224 16.8569 28.3033 17.0721C28.3825 17.2873 28.4165 17.5164 28.4031 17.7453C28.3897 17.9742 28.3293 18.1979 28.2255 18.4024C28.1217 18.6068 27.9769 18.7877 27.8001 18.9336L21.1334 25.3669C20.8286 25.6608 20.4234 25.8276 20.0001 25.8336Z" fill="#231F20"/>
</svg>
