<svg width="20" height="20" viewBox="0 0 20 20" fill="none" xmlns="http://www.w3.org/2000/svg">
<path d="M0 9.13555C0 9.12266 0 9.10938 0 9.09649C0.0847656 9.02773 0.173828 8.96328 0.254297 8.88984C3.44805 5.97656 6.64102 3.0625 9.83437 0.148828C9.89062 0.0976563 9.94922 0.0492188 10.0063 0C10.0461 0.0335938 10.0719 0.0535156 10.0957 0.0753906C12.1973 1.99297 14.3008 3.90859 16.3973 5.83203C16.5789 5.99844 16.7605 6.10664 17.009 6.12109C17.1957 6.13203 17.3844 6.16641 17.5656 6.21484C18.6605 6.50547 19.6691 6.90899 20 8.15859C20 11.3883 20 14.6176 20 17.8473C19.8594 18.425 19.527 18.8621 19.034 19.1875C18.5027 19.5383 17.9121 19.7281 17.293 19.8355C16.9738 19.891 16.65 19.9172 16.3281 19.9566C16.1719 19.9566 16.0156 19.9566 15.8594 19.9566C15.7828 19.9453 15.7066 19.9273 15.6301 19.9238C15.0281 19.8957 14.4426 19.7789 13.8852 19.5559C13.5633 19.427 13.2633 19.2438 12.9406 19.0785C12.3539 19.5195 11.6609 19.7422 10.9266 19.8531C10.6449 19.8957 10.3613 19.9223 10.0785 19.9563C8.07344 19.9563 6.06797 19.9563 4.06289 19.9563C3.98242 19.9367 3.90195 19.916 3.82109 19.8977C2.6957 19.6438 1.96094 18.7102 1.95977 17.518C1.95703 14.9203 1.95898 12.3227 1.95898 9.725C1.95898 9.65039 1.95898 9.57539 1.95898 9.45117C1.63555 9.74414 1.34922 10.0035 1.05547 10.2699C0.697266 9.88555 0.348437 9.51055 0 9.13555ZM6.14766 18.3891C5.93242 17.9973 5.93906 17.6004 5.94102 17.2027C5.94492 16.3953 5.96328 15.5875 5.93633 14.7809C5.90664 13.8813 6.32422 13.2586 7.07695 12.8453C8.375 12.1328 9.76406 12.0512 11.1891 12.3273C11.523 12.3922 11.8469 12.5117 12.1895 12.6098C12.1895 12.5301 12.1895 12.459 12.1895 12.3879C12.1898 11.0727 12.184 9.75742 12.1969 8.44258C12.1992 8.21406 12.2469 7.97266 12.3324 7.76133C12.5738 7.16484 13.0633 6.81133 13.627 6.55508C13.9062 6.42813 14.2 6.3332 14.5066 6.21602C13.0016 4.84297 11.5086 3.48047 10.0051 2.10898C9.8918 2.21172 9.79102 2.30273 9.69063 2.39414C7.68555 4.22383 5.68125 6.05469 3.67266 7.88086C3.56094 7.98242 3.51797 8.08242 3.51836 8.23164C3.52227 11.3047 3.52148 14.3777 3.52148 17.4512C3.52148 17.5227 3.52031 17.5949 3.52852 17.6656C3.57695 18.0828 3.87305 18.3766 4.29297 18.3859C4.89805 18.3992 5.50313 18.3891 6.14766 18.3891ZM13.7512 10.3023C13.7512 10.6762 13.741 11.0316 13.7574 11.3863C13.7621 11.4891 13.8152 11.6336 13.8937 11.6813C14.1574 11.841 14.4301 12.0035 14.7215 12.0965C15.4781 12.3383 16.2578 12.35 17.0355 12.2086C17.4773 12.1281 17.9109 12.0051 18.2695 11.7125C18.3402 11.6547 18.4258 11.5633 18.4293 11.4844C18.4457 11.0969 18.4367 10.7082 18.4367 10.3031C16.8703 10.8758 15.3203 10.8754 13.7512 10.3023ZM18.4375 16.4203C17.6734 16.7375 16.8941 16.8617 16.0977 16.8625C15.298 16.8633 14.516 16.734 13.7512 16.4227C13.7512 16.8004 13.7406 17.1387 13.7574 17.4758C13.7625 17.5789 13.8145 17.7242 13.8926 17.7711C14.1625 17.9328 14.441 18.0977 14.7383 18.1922C15.482 18.4281 16.2484 18.4398 17.0137 18.3031C17.4691 18.2219 17.916 18.1 18.282 17.7938C18.3508 17.7359 18.4277 17.641 18.4312 17.5602C18.4465 17.1914 18.4375 16.8219 18.4375 16.4203ZM7.50352 16.4344C7.50352 16.7895 7.49063 17.127 7.51055 17.4621C7.51758 17.5762 7.57773 17.7336 7.66523 17.7879C7.92188 17.9469 8.19297 18.1008 8.47891 18.1906C9.22422 18.4242 9.99063 18.4395 10.757 18.3055C11.2008 18.2277 11.6336 18.1055 11.9992 17.8246C12.0734 17.7676 12.173 17.682 12.177 17.6055C12.1953 17.2266 12.1852 16.8465 12.1852 16.4547C10.6137 17.0035 9.06758 17.0008 7.50352 16.4344ZM18.4379 13.425C16.8668 14.0035 15.3172 13.9961 13.7512 13.4277C13.7512 13.7566 13.7582 14.0676 13.748 14.3777C13.7434 14.5242 13.7871 14.6426 13.9078 14.7086C14.168 14.8508 14.4258 15.0129 14.7051 15.1012C15.4688 15.3422 16.2539 15.3574 17.0383 15.2148C17.4801 15.1348 17.9148 15.0125 18.2707 14.7168C18.3473 14.6531 18.4246 14.5426 18.4301 14.4492C18.4496 14.1191 18.4379 13.7871 18.4379 13.425ZM16.0844 9.17539C16.7785 9.15156 17.4789 9.08242 18.1004 8.70703C18.541 8.44102 18.5375 8.33867 18.0996 8.07656C17.4715 7.70039 16.7664 7.61094 16.0512 7.61641C15.3629 7.62148 14.684 7.71445 14.0824 8.08203C13.659 8.34102 13.6477 8.43594 14.0828 8.70234C14.6906 9.07422 15.3777 9.14649 16.0844 9.17539ZM9.8207 15.3043C10.5934 15.3047 11.3816 15.1406 11.8289 14.877C12.2922 14.6039 12.2973 14.5066 11.8445 14.2238C11.2652 13.8617 10.6086 13.7578 9.93828 13.748C9.20195 13.7371 8.47969 13.8266 7.83398 14.2141C7.41211 14.4672 7.40352 14.5715 7.83867 14.8352C8.45352 15.2074 9.14648 15.2805 9.8207 15.3043Z" fill="white"/>
</svg>
